<svg xmlns="http://www.w3.org/2000/svg" width="256" height="256" viewBox="0 0 256 256" version="1.1"><path d="M 14 35 C 14 43.660, 14.085 44.001, 16.250 44.022 C 19.267 44.051, 26.940 47.602, 29.845 50.312 C 35.194 55.303, 35 52.185, 35 132.964 C 35 191.045, 34.719 208.477, 33.757 210.017 C 32.374 212.232, 32.117 211.718, 39.273 221.040 C 41.897 224.460, 44.499 227.988, 45.055 228.879 C 45.969 230.347, 46.179 230.322, 47.282 228.622 C 47.952 227.590, 50.862 223.685, 53.750 219.945 C 58.930 213.237, 59.958 210.710, 58 209.500 C 57.377 209.115, 57 199.656, 57 184.441 L 57 160 73.500 160 L 90 160 90 184.014 C 90 201.472, 89.659 208.573, 88.752 210.026 C 87.733 211.657, 87.779 212.458, 89.002 214.382 C 91.545 218.384, 100.137 229.484, 100.917 229.776 C 101.323 229.928, 102.138 228.992, 102.728 227.698 C 103.318 226.403, 106.096 222.586, 108.900 219.215 C 113.926 213.177, 114.965 210.714, 113 209.500 C 112.377 209.115, 112 199.656, 112 184.441 L 112 160 128 160 L 144 160 144 184.441 C 144 199.656, 143.623 209.115, 143 209.500 C 141.035 210.714, 142.074 213.177, 147.100 219.215 C 149.904 222.586, 152.682 226.403, 153.272 227.698 C 153.862 228.992, 154.677 229.928, 155.083 229.776 C 155.863 229.484, 164.455 218.384, 166.998 214.382 C 168.221 212.458, 168.267 211.657, 167.248 210.026 C 166.341 208.573, 166 201.472, 166 184.014 L 166 160 182.500 160 L 199 160 199 184.441 C 199 199.656, 198.623 209.115, 198 209.500 C 196.071 210.692, 197.036 213.580, 200.943 218.309 C 203.112 220.933, 205.849 224.638, 207.025 226.540 C 208.201 228.443, 209.479 230, 209.866 230 C 210.253 230, 211.345 228.686, 212.293 227.081 C 213.241 225.476, 216.038 221.681, 218.509 218.648 C 222.969 213.173, 223.918 210.686, 222 209.500 C 221.348 209.097, 221 182.640, 221 133.391 C 221 52.150, 220.804 55.304, 226.155 50.312 C 229.060 47.602, 236.733 44.051, 239.750 44.022 C 241.915 44.001, 242 43.660, 242 35 L 242 26 128 26 L 14 26 14 35 M 57 67.500 L 57 84 73.500 84 L 90 84 90 67.500 L 90 51 73.500 51 L 57 51 57 67.500 M 112 67.500 L 112 84 128 84 L 144 84 144 67.500 L 144 51 128 51 L 112 51 112 67.500 M 166 67.500 L 166 84 182.500 84 L 199 84 199 67.500 L 199 51 182.500 51 L 166 51 166 67.500 M 57 121.500 L 57 138 73.500 138 L 90 138 90 121.500 L 90 105 73.500 105 L 57 105 57 121.500 M 112 121.500 L 112 138 128 138 L 144 138 144 121.500 L 144 105 128 105 L 112 105 112 121.500 M 166 121.500 L 166 138 182.500 138 L 199 138 199 121.500 L 199 105 182.500 105 L 166 105 166 121.500" stroke="none" fill="#f6f4f3" fill-rule="evenodd"/><path d="" stroke="none" fill="#f6f4f3" fill-rule="evenodd"/></svg>