<svg xmlns="http://www.w3.org/2000/svg" width="84" height="84" viewBox="0 0 84 84" version="1.1"><path d="M 10.211 32.613 L 10.500 65.226 15.164 69.448 C 20.054 73.874, 38.728 84, 42 84 C 45.272 84, 63.946 73.874, 68.836 69.448 L 73.500 65.226 73.789 32.613 L 74.079 0 42 -0 L 9.921 -0 10.211 32.613 M 13 31.953 C 13 51.479, 13.371 61.720, 14.139 63.405 C 15.600 66.612, 24.775 73.042, 34.436 77.630 L 42 81.222 49.564 77.630 C 59.225 73.042, 68.400 66.612, 69.861 63.405 C 70.629 61.720, 71 51.479, 71 31.953 L 71 3 42 3 L 13 3 13 31.953 M 15 16 C 15 22.050, 15.397 27, 15.883 27 C 16.368 27, 22.419 24.267, 29.329 20.926 L 41.893 14.853 54.590 20.926 C 61.573 24.267, 67.672 27, 68.144 27 C 68.615 27, 69 22.050, 69 16 L 69 5 42 5 L 15 5 15 16 M 27.750 29.560 C 20.738 33.110, 15 36.387, 15 36.841 C 15 39.094, 17.224 38.401, 29.116 32.442 L 42 25.986 54.884 32.442 C 66.776 38.401, 69 39.094, 69 36.840 C 69 35.849, 43.574 22.977, 41.764 23.052 C 41.069 23.081, 34.763 26.009, 27.750 29.560 M 28.829 40.520 C 21.860 44.049, 15.852 47.430, 15.479 48.035 C 13.702 50.909, 17.102 49.893, 29.035 43.983 L 42 37.561 54.965 43.983 C 66.899 49.893, 70.298 50.909, 68.521 48.034 C 67.961 47.128, 42.616 33.884, 41.764 34.052 C 41.619 34.081, 35.798 36.991, 28.829 40.520 M 27.694 52.588 C 13.164 59.944, 12.869 60.491, 19.932 67 C 23.490 70.279, 39.528 79, 42 79 C 44.472 79, 60.510 70.279, 64.068 67 C 71.152 60.471, 70.863 59.948, 56.070 52.535 C 48.897 48.941, 42.460 46.023, 41.764 46.052 C 41.069 46.081, 34.737 49.022, 27.694 52.588" stroke="none" fill="#f6f4f3" fill-rule="evenodd"/><path d="" stroke="none" fill="#f6f4f3" fill-rule="evenodd"/></svg>