<svg xmlns="http://www.w3.org/2000/svg" width="110" height="110" viewBox="0 0 110 110" version="1.1"><path d="M 52.750 1.077 C 50.849 2.187, 50.391 5.505, 52 6.500 C 53.209 7.247, 53.303 13.973, 52.131 15.823 C 51.543 16.749, 50.200 16.940, 47.646 16.461 C 44.064 15.789, 44 15.834, 44 19 C 44 22.141, 44.088 22.206, 47.500 21.566 L 51 20.909 51 25.955 L 51 31 55 31 L 59 31 59 25.988 L 59 20.976 63.080 21.629 C 67.113 22.274, 67.156 22.248, 66.830 19.391 C 66.518 16.658, 66.272 16.517, 62.320 16.810 L 58.140 17.119 57.445 12.484 C 56.997 9.495, 57.150 7.450, 57.875 6.725 C 59.224 5.376, 59.382 1, 58.082 1 C 57.577 1, 56.564 0.787, 55.832 0.527 C 55.099 0.267, 53.712 0.514, 52.750 1.077 M 62 24.500 C 62 25.325, 62.421 26, 62.935 26 C 65.622 26, 68.915 28.057, 68.396 29.411 C 67.958 30.552, 67.252 30.666, 65.276 29.915 C 63.872 29.381, 62.515 29.152, 62.261 29.405 C 61.265 30.402, 63.180 31.877, 66.261 32.486 C 71.286 33.478, 75 35.130, 75 36.373 C 75 36.995, 77.025 39.679, 79.500 42.336 C 83.993 47.161, 84.390 47.940, 84.049 51.268 C 83.950 52.240, 84.574 55.463, 85.437 58.430 C 87.158 64.350, 86.921 65.535, 82.797 71.645 C 81.259 73.925, 79.985 76.625, 79.967 77.645 C 79.933 79.518, 76.771 84, 75.483 84 C 75.100 84, 72.526 85.800, 69.763 88 C 66.999 90.200, 64.123 92, 63.369 92 C 62.582 92, 62 93.043, 62 94.453 C 62 96.824, 62.176 96.885, 67.250 96.289 C 73.641 95.537, 78.201 92.231, 81.119 86.233 C 82.261 83.886, 84.050 81.509, 85.094 80.950 C 87.292 79.773, 91.313 72.411, 90.706 70.675 C 90.479 70.029, 90.947 67.275, 91.744 64.555 C 93.454 58.720, 92.777 52.803, 89.993 49.264 C 88.926 47.907, 87.748 45.155, 87.375 43.149 C 86.471 38.275, 82.492 33.232, 78.104 31.399 C 76.137 30.577, 73.621 29.069, 72.514 28.048 C 70.859 26.523, 63.786 23, 62.378 23 C 62.170 23, 62 23.675, 62 24.500 M 42.623 25.033 C 41.041 25.507, 38.905 26.798, 37.877 27.901 C 36.849 29.005, 34.429 30.204, 32.499 30.566 C 28.238 31.366, 23.591 36.810, 22.615 42.149 C 22.248 44.155, 21.118 46.855, 20.104 48.149 C 17.294 51.733, 16.742 56.164, 18.038 64.713 C 19.465 74.117, 21.532 79.464, 24.492 81.403 C 25.707 82.199, 27.459 84.448, 28.386 86.401 C 30.997 91.902, 36.089 95.233, 42.623 95.712 C 47.925 96.101, 48.141 96.022, 47.827 93.809 C 47.590 92.136, 46.743 91.413, 44.750 91.184 C 43.237 91.010, 42 90.491, 42 90.031 C 42 89.571, 39.545 87.565, 36.544 85.573 C 30.497 81.559, 30.060 81.063, 29.407 77.460 C 29.157 76.081, 27.613 72.776, 25.976 70.116 C 22.783 64.927, 22.409 62.972, 24.030 59.944 C 24.879 58.357, 25.716 52.895, 25.953 47.398 C 25.979 46.792, 27.237 44.939, 28.750 43.280 C 30.262 41.621, 32.850 38.697, 34.500 36.782 C 36.970 33.915, 38.428 33.179, 42.750 32.615 C 46.384 32.142, 48 31.480, 48 30.466 C 48 28.730, 47.883 28.714, 44.565 29.975 C 42.384 30.804, 42 30.673, 42 29.100 C 42 27.844, 42.964 27.057, 45 26.650 C 46.650 26.320, 48 25.589, 48 25.025 C 48 23.833, 46.625 23.835, 42.623 25.033 M 45.260 34.101 C 42.927 35.255, 39.281 38.292, 37.157 40.850 C 34.014 44.634, 33.152 46.617, 32.528 51.500 C 31.082 62.805, 31.278 65.109, 33.828 66.802 C 36.151 68.344, 36.154 68.340, 35.467 64.674 C 34.867 61.478, 35.027 61, 36.698 61 C 39.989 61, 42.110 63.398, 42.698 67.785 C 43.050 70.409, 43.780 72, 44.632 72 C 45.384 72, 46 71.305, 46 70.455 C 46 69.605, 47.105 67.805, 48.455 66.455 C 52.874 62.035, 62.606 63.782, 63.688 69.189 C 64.263 72.065, 66.433 72.993, 67.338 70.750 C 67.615 70.063, 67.878 71.412, 67.921 73.750 C 68.003 78.144, 66.633 79.528, 65.707 75.987 C 65.090 73.629, 59.410 71, 54.933 71 C 50.797 71, 45.226 73.713, 44.469 76.096 C 43.340 79.654, 42 78.018, 42 73.082 C 42 67.729, 41.289 65, 39.893 65 C 38.882 65, 38.697 77.265, 39.654 80.840 C 40.143 82.669, 40.808 83.079, 42.698 82.717 C 44.403 82.392, 44.968 82.641, 44.614 83.563 C 43.795 85.697, 46.256 85.828, 49.985 83.849 C 54.392 81.511, 55.404 81.533, 60.661 84.078 C 63.022 85.221, 65.740 86.004, 66.701 85.819 C 69.574 85.266, 70.970 80.967, 70.985 72.628 C 70.998 65.742, 70.812 64.911, 69.500 66 C 68.276 67.016, 68 66.959, 68 65.694 C 68 63.507, 70.768 61, 73.183 61 C 74.972 61, 75.142 61.429, 74.566 64.500 C 73.828 68.434, 74.826 68.955, 77.482 66.020 C 79.097 64.235, 79.174 63.145, 78.262 54.974 C 77.321 46.548, 76.972 45.576, 73.317 41.204 C 65.842 32.263, 54.680 29.437, 45.260 34.101 M 27.682 36.350 C 25.458 39.266, 25.291 39.898, 26.612 40.404 C 27.555 40.766, 28.922 40.110, 30.055 38.752 C 32.211 36.167, 32.261 35.960, 31.143 34.198 C 30.534 33.237, 29.627 33.801, 27.682 36.350 M 78.316 35.474 C 77.387 36.494, 77.659 37.271, 79.579 39.074 C 82.887 42.182, 84.572 40.383, 81.675 36.837 C 79.919 34.687, 79.272 34.424, 78.316 35.474 M 42 43.709 C 37.861 45.231, 35.474 49.939, 38.037 51.523 C 39.182 52.230, 45.905 51.306, 47.645 50.201 C 48.252 49.815, 49.066 48.038, 49.454 46.250 C 50.141 43.083, 50.074 43.002, 46.829 43.079 C 44.998 43.122, 42.825 43.406, 42 43.709 M 61 46.349 C 61 50.264, 62.253 51.027, 69.209 51.348 C 71.828 51.469, 72.560 51.081, 72.794 49.445 C 73.205 46.573, 69.895 43.930, 65.078 43.284 L 61 42.737 61 46.349 M 52.405 49.573 C 50.347 54.498, 51.187 56.522, 55.238 56.409 C 59.168 56.299, 59.962 53.762, 57.535 49.068 C 55.470 45.074, 54.234 45.196, 52.405 49.573 M 20.650 51.758 C 20.392 52.174, 19.866 54.199, 19.479 56.258 C 18.923 59.225, 19.087 60, 20.272 60 C 21.820 60, 22.963 57.158, 22.986 53.250 C 23 51.081, 21.615 50.196, 20.650 51.758 M 87.368 51.691 C 85.678 52.284, 87.845 60, 89.701 60 C 90.822 60, 90.998 59.248, 90.465 56.750 C 89.560 52.514, 88.757 51.203, 87.368 51.691 M 22.283 71.804 C 21.369 72.385, 21.572 73.412, 23.099 75.922 C 25.769 80.313, 27.940 78.718, 25.559 74.115 C 23.755 70.626, 23.936 70.754, 22.283 71.804 M 83.701 74.199 C 82.104 76.981, 82.164 79, 83.843 79 C 84.530 79, 88 73.743, 88 72.703 C 88 72.434, 87.417 71.990, 86.705 71.717 C 85.985 71.441, 84.652 72.542, 83.701 74.199 M 52.250 83.662 C 50.609 84.324, 50.652 101.148, 52.306 106 C 55.203 114.493, 58.856 107.533, 58.944 93.357 C 58.990 85.907, 58.707 84.102, 57.418 83.607 C 55.618 82.916, 54.058 82.933, 52.250 83.662 M 32.547 87.924 C 31.774 89.174, 37.707 93.299, 39.068 92.458 C 39.766 92.027, 39.351 90.938, 37.901 89.395 C 35.559 86.902, 33.524 86.343, 32.547 87.924 M 71.790 89.294 C 69.905 90.836, 69.343 91.937, 69.945 92.911 C 70.651 94.053, 71.367 93.868, 73.845 91.905 C 76.788 89.574, 77.367 87.915, 75.438 87.351 C 74.922 87.200, 73.280 88.074, 71.790 89.294" stroke="none" fill="#f6f4f3" fill-rule="evenodd"/><path d="" stroke="none" fill="#f6f4f3" fill-rule="evenodd"/></svg>